<svg width="181" height="36" viewBox="0 0 1091 216" fill="none" xmlns="http://www.w3.org/2000/svg">
<path d="M760.103 37.9355C755.304 37.9355 745.983 36.7358 732.139 34.3362C718.296 31.9367 708.236 30.7369 701.96 30.7369C695.869 30.7369 691.993 30.8292 690.332 31.0138C685.348 31.9367 681.103 35.0746 677.596 40.4274L669.013 38.4893C670.49 28.3374 674.181 19.939 680.088 13.2941C686.179 6.46466 693.47 3.04992 701.96 3.04992C710.636 3.04992 722.08 4.15741 736.292 6.37237C750.505 8.58733 760.38 9.69481 765.917 9.69481C771.639 9.69481 775.977 9.14107 778.93 8.03358C781.884 6.92611 784.652 4.52657 787.236 0.834967L795.819 2.49619C793.974 13.2018 790.467 21.7848 785.298 28.2451C780.13 34.7054 771.732 37.9355 760.103 37.9355Z" fill="white"/>
<path d="M0.48683 212.798H82.8091C120.363 212.798 139.883 195.4 139.883 171.637V171.213C139.883 150.844 127.789 140.872 108.482 135.144C124.607 129.415 135.003 119.019 135.003 101.197V100.772C135.003 90.588 131.184 82.9498 125.88 77.6456C117.181 68.9466 104.238 64.2788 83.6578 64.2788H0.48683V212.798ZM86.2038 112.442C86.2038 119.231 80.8995 122.626 70.5032 122.626H48.8618V101.833H70.291C80.8995 101.833 86.2038 105.228 86.2038 112.017V112.442ZM90.0229 164.423C90.0229 171.001 84.5064 175.244 73.6857 175.244H48.8618V153.178H73.8979C84.7186 153.178 90.0229 157.422 90.0229 163.999V164.423ZM222.419 215.769C266.763 215.769 296.254 195.825 296.254 145.116V64.2788H245.758V146.601C245.758 164.636 236.422 171.849 222.843 171.849C209.477 171.849 199.929 163.999 199.929 145.54V64.2788H149.432V146.177C149.432 195.4 178.288 215.769 222.419 215.769ZM312.33 212.798H361.978V64.2788H312.33V212.798ZM379.452 212.798H434.616C494.661 212.798 524.789 181.821 524.789 137.69V137.266C524.789 93.134 495.297 64.2788 436.314 64.2788H379.452V212.798ZM437.375 107.562C460.289 107.562 474.717 116.897 474.717 138.326V138.751C474.717 160.18 460.289 169.516 437.375 169.516H429.1V107.562H437.375ZM538.373 212.798H657.825V170.364H588.021V64.2788H538.373V212.798ZM668.7 212.798H796.427V172.062H717.5V155.937H790.062V120.08H717.5V105.016H795.366V64.2788H668.7V212.798ZM809.802 212.798H859.45V170.364H870.059L898.065 212.798H954.715L920.131 162.302C938.165 153.603 949.41 138.751 949.41 116.897V116.473C949.41 101.197 944.955 90.3758 935.832 81.2525C925.435 70.8561 908.886 64.2788 882.365 64.2788H809.802V212.798ZM859.45 134.932V105.864H881.092C892.761 105.864 899.975 110.532 899.975 120.08V120.504C899.975 129.627 892.761 134.932 880.879 134.932H859.45ZM1025.33 215.557C1065.22 215.557 1090.9 196.461 1090.9 165.272V164.848C1090.9 135.144 1065.43 123.687 1027.46 116.897C1011.54 114.139 1007.72 111.381 1007.72 107.349V106.925C1007.72 103.318 1011.12 100.772 1018.55 100.772C1032.34 100.772 1048.89 105.228 1063.1 115.412L1087.29 81.889C1070.1 68.3101 1049.1 61.5206 1020.24 61.5206C979.506 61.5206 957.228 83.3742 957.228 111.593V112.017C957.228 143.419 986.507 152.966 1019.82 159.756C1035.73 162.938 1040.4 165.272 1040.4 169.516V169.94C1040.4 173.971 1036.79 176.305 1027.67 176.305C1010.06 176.305 991.811 171.425 975.687 158.907L949.165 190.52C968.048 207.282 994.994 215.557 1025.33 215.557Z" fill="white"/>
</svg>
